<svg xmlns="http://www.w3.org/2000/svg" viewBox="0 0 128 128" role="img" aria-label="Lindes Fastighetsservice logotyp">
  <rect width="128" height="128" rx="20" fill="#f5f3ef" />
  <g fill="none" stroke="#456647" stroke-linecap="round" stroke-linejoin="round">
    <path d="M64 87V47" stroke-width="7"/>
    <path d="M64 56c0-10 8-18 18-18" stroke-width="6"/>
    <path d="M64 61c0-9-7-16-16-16" stroke-width="6"/>
    <path d="M40 87h48" stroke-width="7"/>
  </g>
  <g>
    <ellipse cx="64" cy="39" rx="7" ry="11" transform="rotate(-10 64 39)" fill="#456647"/>
    <ellipse cx="50" cy="36" rx="6" ry="10" transform="rotate(-40 50 36)" fill="#c7b8a4"/>
    <ellipse cx="78" cy="35" rx="6" ry="10" transform="rotate(32 78 35)" fill="#c7b8a4"/>
    <ellipse cx="43" cy="50" rx="6" ry="10" transform="rotate(-55 43 50)" fill="#456647"/>
    <ellipse cx="85" cy="50" rx="6" ry="10" transform="rotate(52 85 50)" fill="#456647"/>
    <ellipse cx="53" cy="53" rx="5" ry="9" transform="rotate(-20 53 53)" fill="#c7b8a4"/>
    <ellipse cx="75" cy="53" rx="5" ry="9" transform="rotate(20 75 53)" fill="#c7b8a4"/>
  </g>
</svg>
